<svg width="13" height="16" viewBox="0 0 13 16" fill="none" xmlns="http://www.w3.org/2000/svg">
    <path fill-rule="evenodd" clip-rule="evenodd" d="M9.2704 8.76923C9.2704 9.08786 9.01043 9.34615 8.68975 9.34615H4.31025C3.98957 9.34615 3.7296 9.08786 3.72961 8.76923C3.72961 8.4506 3.98957 8.19231 4.31025 8.19231H8.68975C9.01043 8.19231 9.2704 8.4506 9.2704 8.76923Z" fill="#1AA483"/>
    <path fill-rule="evenodd" clip-rule="evenodd" d="M6.5 6.01659C6.82068 6.01659 7.08065 6.27489 7.08065 6.59352V10.9449C7.08065 11.2636 6.82068 11.5219 6.5 11.5219C6.17932 11.5219 5.91935 11.2636 5.91935 10.9449V6.59352C5.91935 6.27489 6.17932 6.01659 6.5 6.01659Z" fill="#1AA483"/>
    <path fill-rule="evenodd" clip-rule="evenodd" d="M4.22624 1.15016C4.46708 0.758326 4.88949 0.5 5.36595 0.5H7.63405C8.11051 0.5 8.53292 0.758326 8.77376 1.15016L9.1985 1.84119C9.61812 1.87382 10.0161 1.90893 10.3634 1.94161C11.3748 2.03676 12.1628 2.83818 12.2422 3.84139C12.3489 5.18964 12.5 7.38298 12.5 9.00828C12.5 10.5422 12.3656 12.2838 12.2606 13.412C12.1687 14.4 11.3859 15.1754 10.3942 15.2691C9.31657 15.3709 7.71484 15.5 6.5 15.5C5.28516 15.5 3.68343 15.3709 2.60584 15.2691C1.61411 15.1754 0.831286 14.4 0.73937 13.412C0.634403 12.2838 0.5 10.5422 0.5 9.00828C0.5 7.38298 0.651115 5.18964 0.757794 3.84139C0.837173 2.83818 1.62518 2.03676 2.63659 1.94161C2.98395 1.90893 3.38188 1.87382 3.8015 1.84119L4.22624 1.15016ZM3.51831 3.02167C3.24372 3.0446 2.98316 3.06801 2.74606 3.09032C2.29956 3.13232 1.95091 3.48446 1.91551 3.93183C1.80889 5.27939 1.66129 7.4327 1.66129 9.00828C1.66129 10.4881 1.7917 12.1876 1.89573 13.3058C1.93605 13.7392 2.27728 14.079 2.71576 14.1205C3.7908 14.222 5.34489 14.3462 6.5 14.3462C7.65511 14.3462 9.2092 14.222 10.2842 14.1205C10.7227 14.079 11.0639 13.7392 11.1043 13.3058C11.2083 12.1876 11.3387 10.4881 11.3387 9.00828C11.3387 7.4327 11.1911 5.27939 11.0845 3.93183C11.0491 3.48446 10.7004 3.13232 10.2539 3.09032C10.0168 3.06801 9.75628 3.0446 9.48169 3.02167C9.45143 3.18523 9.39412 3.3413 9.31407 3.48207C9.09532 3.86671 8.68187 4.17299 8.15018 4.17299H4.84982C4.31813 4.17299 3.90468 3.86671 3.68593 3.48207C3.60588 3.3413 3.54857 3.18523 3.51831 3.02167ZM5.36595 1.65385C5.3247 1.65385 5.26366 1.67616 5.21732 1.75154L4.70119 2.59126C4.69359 2.60362 4.68714 2.61592 4.68168 2.6281C4.64005 2.72099 4.64869 2.82952 4.69697 2.91442C4.74305 2.99544 4.80047 3.01915 4.84982 3.01915H8.15018C8.19952 3.01915 8.25695 2.99544 8.30303 2.91442C8.35131 2.82952 8.35995 2.72099 8.31832 2.6281C8.31286 2.61592 8.3064 2.60362 8.29881 2.59126L7.78268 1.75154C7.73634 1.67616 7.6753 1.65385 7.63405 1.65385H5.36595Z" fill="#1AA483"/>
</svg>
