<svg width="15" height="16" viewBox="0 0 15 16" fill="none" xmlns="http://www.w3.org/2000/svg">
    <path d="M9.375 13H3.125C2.2965 12.999 1.50222 12.6694 0.916387 12.0836C0.330551 11.4978 0.000992411 10.7035 0 9.875L0 3.625C0.000992411 2.7965 0.330551 2.00222 0.916387 1.41639C1.50222 0.830551 2.2965 0.500992 3.125 0.5L9.375 0.5C10.2035 0.500992 10.9978 0.830551 11.5836 1.41639C12.1694 2.00222 12.499 2.7965 12.5 3.625V9.875C12.499 10.7035 12.1694 11.4978 11.5836 12.0836C10.9978 12.6694 10.2035 12.999 9.375 13ZM3.125 1.75C2.62772 1.75 2.15081 1.94754 1.79917 2.29917C1.44754 2.65081 1.25 3.12772 1.25 3.625V9.875C1.25 10.3723 1.44754 10.8492 1.79917 11.2008C2.15081 11.5525 2.62772 11.75 3.125 11.75H9.375C9.87228 11.75 10.3492 11.5525 10.7008 11.2008C11.0525 10.8492 11.25 10.3723 11.25 9.875V3.625C11.25 3.12772 11.0525 2.65081 10.7008 2.29917C10.3492 1.94754 9.87228 1.75 9.375 1.75H3.125ZM15 12.375V4.25C15 4.08424 14.9342 3.92527 14.8169 3.80806C14.6997 3.69085 14.5408 3.625 14.375 3.625C14.2092 3.625 14.0503 3.69085 13.9331 3.80806C13.8158 3.92527 13.75 4.08424 13.75 4.25V12.375C13.75 12.8723 13.5525 13.3492 13.2008 13.7008C12.8492 14.0525 12.3723 14.25 11.875 14.25H3.75C3.58424 14.25 3.42527 14.3158 3.30806 14.4331C3.19085 14.5503 3.125 14.7092 3.125 14.875C3.125 15.0408 3.19085 15.1997 3.30806 15.3169C3.42527 15.4342 3.58424 15.5 3.75 15.5H11.875C12.7035 15.499 13.4978 15.1694 14.0836 14.5836C14.6694 13.9978 14.999 13.2035 15 12.375Z" fill="#1AA483"/>
</svg>
