<svg width="15" height="14" viewBox="0 0 15 14" fill="none" xmlns="http://www.w3.org/2000/svg">
    <path d="M14.2271 0.777022C14.2264 0.77082 14.2263 0.764399 14.2251 0.758342C14.2214 0.739609 14.2139 0.721725 14.2062 0.703914C14.2044 0.699382 14.2038 0.69473 14.2016 0.690271C14.19 0.667208 14.1748 0.645735 14.1559 0.626415C14.1528 0.62306 14.149 0.62017 14.1456 0.616888C14.1449 0.616542 14.1447 0.615803 14.1442 0.615137C14.1439 0.614718 14.143 0.614691 14.1426 0.614026C14.1401 0.611828 14.1377 0.609312 14.1352 0.607361C14.1133 0.589485 14.0894 0.576498 14.064 0.566878C14.0583 0.564819 14.0523 0.564457 14.0464 0.562718C14.0246 0.556061 14.0025 0.551912 13.9798 0.551403C13.9698 0.551153 13.9603 0.55238 13.9504 0.553434C13.9314 0.555076 13.9129 0.558688 13.8943 0.564735C13.8845 0.567905 13.8753 0.571175 13.8659 0.575576C13.8598 0.578462 13.8533 0.579304 13.8474 0.582682L0.430618 7.77939C0.335205 7.83075 0.281877 7.93634 0.297901 8.04358C0.313926 8.15083 0.395359 8.23651 0.501608 8.25776L5.23841 9.20239L7.13986 12.9752C7.14025 12.9783 7.14194 12.9812 7.14257 12.9843C7.14595 13.0047 7.15141 13.024 7.15964 13.0427C7.1638 13.0522 7.16781 13.0612 7.17312 13.0701C7.18573 13.0918 7.20134 13.111 7.2198 13.128C7.22343 13.1312 7.22482 13.1359 7.22869 13.139C7.2298 13.14 7.23132 13.1407 7.2326 13.1414C7.23719 13.1451 7.24272 13.1475 7.2478 13.151C7.26361 13.1619 7.27955 13.1714 7.29663 13.1784C7.29936 13.1794 7.30164 13.1817 7.30462 13.1827C7.30911 13.1843 7.31352 13.1838 7.31794 13.1852C7.33589 13.1905 7.35381 13.1941 7.37221 13.1956C7.37959 13.1961 7.38663 13.1972 7.39411 13.1971C7.41817 13.1969 7.44238 13.1946 7.46553 13.1877L7.46627 13.1875C7.46726 13.1872 7.46809 13.1864 7.46908 13.1861C7.47334 13.1851 7.4776 13.1841 7.48178 13.1829C7.54999 13.1626 7.60249 13.1138 7.63409 13.0533L9.82238 10.4247L13.23 11.4335C13.2781 11.4476 13.3289 11.4473 13.3759 11.4333C13.4018 11.4257 13.4269 11.4136 13.4498 11.3977C13.5137 11.3531 13.5541 11.2816 13.559 11.2035L14.2288 0.82584C14.2295 0.816517 14.2296 0.807095 14.2292 0.797572C14.2291 0.793586 14.2283 0.789819 14.228 0.786152C14.2279 0.783224 14.2275 0.780124 14.2271 0.777022ZM11.8417 3.19537L7.22292 9.29311C7.21543 9.3031 7.21043 9.31423 7.20455 9.32508C7.20222 9.32899 7.19975 9.3324 7.19799 9.33641C7.1945 9.34361 7.1915 9.35066 7.18865 9.3582C7.18598 9.36543 7.18435 9.37261 7.18224 9.37993C7.17752 9.39741 7.17442 9.41495 7.17333 9.43295C7.17305 9.43652 7.17181 9.43957 7.17177 9.44306C7.17182 9.44412 7.17098 9.4449 7.17103 9.44596L7.14708 11.8477L5.72675 9.02958L11.8417 3.19537ZM7.66939 12.2081L7.68253 9.7917L8.92926 10.1609L9.28587 10.2664L8.47129 11.2448L7.66939 12.2081ZM12.4249 1.92877L5.33111 8.69687L1.30407 7.8939L12.4249 1.92877ZM13.0674 10.8497L8.54215 9.51028L7.85678 9.30725L13.6615 1.64345L13.0674 10.8497Z" fill="#1AA483" stroke="#1AA483" stroke-width="0.4"/>
</svg>
