<svg width="15" height="16" viewBox="0 0 15 16" fill="none" xmlns="http://www.w3.org/2000/svg">
    <g clip-path="url(#clip0_4_318)">
        <path d="M7.5 0.5C6.01664 0.5 4.5666 0.939867 3.33323 1.76398C2.09986 2.58809 1.13856 3.75943 0.570907 5.12987C0.00324965 6.50032 -0.145275 8.00832 0.144114 9.46318C0.433503 10.918 1.14781 12.2544 2.1967 13.3033C3.2456 14.3522 4.58197 15.0665 6.03683 15.3559C7.49168 15.6453 8.99968 15.4968 10.3701 14.9291C11.7406 14.3614 12.9119 13.4001 13.736 12.1668C14.5601 10.9334 15 9.48336 15 8C14.9979 6.01154 14.207 4.10513 12.8009 2.69907C11.3949 1.29302 9.48847 0.502151 7.5 0.5V0.5ZM7.5 14.25C6.26387 14.25 5.0555 13.8834 4.02769 13.1967C2.99988 12.5099 2.1988 11.5338 1.72576 10.3918C1.25271 9.24973 1.12894 7.99307 1.3701 6.78069C1.61125 5.56831 2.20651 4.45466 3.08059 3.58058C3.95466 2.7065 5.06831 2.11125 6.28069 1.87009C7.49307 1.62893 8.74974 1.75271 9.89178 2.22575C11.0338 2.6988 12.0099 3.49988 12.6967 4.52769C13.3834 5.55549 13.75 6.76387 13.75 8C13.7482 9.65705 13.0891 11.2457 11.9174 12.4174C10.7457 13.5891 9.15705 14.2482 7.5 14.25Z" fill="#1AA483"/>
        <path d="M7.5 3.625C7.33424 3.625 7.17527 3.69085 7.05806 3.80806C6.94085 3.92527 6.875 4.08424 6.875 4.25V9.25C6.875 9.41576 6.94085 9.57473 7.05806 9.69194C7.17527 9.80915 7.33424 9.875 7.5 9.875C7.66576 9.875 7.82473 9.80915 7.94194 9.69194C8.05915 9.57473 8.125 9.41576 8.125 9.25V4.25C8.125 4.08424 8.05915 3.92527 7.94194 3.80806C7.82473 3.69085 7.66576 3.625 7.5 3.625Z" fill="#1AA483"/>
        <path d="M8.125 11.75C8.125 11.4048 7.84518 11.125 7.5 11.125C7.15482 11.125 6.875 11.4048 6.875 11.75C6.875 12.0952 7.15482 12.375 7.5 12.375C7.84518 12.375 8.125 12.0952 8.125 11.75Z" fill="#1AA483"/>
    </g>
    <defs>
        <clipPath id="clip0_4_318">
            <rect width="15" height="15" fill="white" transform="translate(0 0.5)"/>
        </clipPath>
    </defs>
</svg>
