<svg width="13" height="16" viewBox="0 0 13 16" fill="none" xmlns="http://www.w3.org/2000/svg">
    <path d="M11.1332 15.4989C10.9226 15.4983 10.7141 15.4518 10.5199 15.3622C10.3257 15.2727 10.1495 15.1417 10.0017 14.977L6.49951 11.1558L2.99731 14.9795C2.77239 15.23 2.48394 15.4003 2.16955 15.4681C1.85517 15.536 1.52944 15.4984 1.23483 15.3602C0.937293 15.2288 0.682761 15.002 0.504469 14.7095C0.326177 14.4169 0.232414 14.0721 0.235422 13.7202V3.6239C0.235422 2.7951 0.535405 2.00024 1.06938 1.41419C1.60335 0.828141 2.32758 0.498901 3.08273 0.498901L9.91628 0.498901C10.2902 0.498901 10.6604 0.579732 11.0059 0.736778C11.3514 0.893824 11.6652 1.12401 11.9296 1.41419C12.194 1.70438 12.4038 2.04887 12.5469 2.42802C12.6899 2.80716 12.7636 3.21352 12.7636 3.6239V13.7202C12.7668 14.0718 12.6734 14.4164 12.4955 14.7089C12.3176 15.0015 12.0636 15.2284 11.7665 15.3602C11.5659 15.4522 11.3506 15.4994 11.1332 15.4989ZM3.08273 1.7489C2.62964 1.7489 2.19511 1.94645 1.87472 2.29808C1.55434 2.64971 1.37435 3.12662 1.37435 3.6239V13.7202C1.37414 13.8243 1.40206 13.9262 1.45458 14.0129C1.50711 14.0997 1.58187 14.1674 1.66944 14.2075C1.757 14.2476 1.85344 14.2584 1.94657 14.2384C2.03969 14.2184 2.12533 14.1685 2.19266 14.0952L6.10088 9.83203C6.20758 9.71562 6.35191 9.65028 6.50235 9.65028C6.6528 9.65028 6.79713 9.71562 6.90383 9.83203L10.8075 14.0939C10.8748 14.1673 10.9605 14.2171 11.0536 14.2371C11.1467 14.2571 11.2432 14.2464 11.3307 14.2062C11.4183 14.1661 11.493 14.0984 11.5456 14.0117C11.5981 13.9249 11.626 13.823 11.6258 13.7189V3.6239C11.6258 3.12662 11.4458 2.64971 11.1254 2.29808C10.805 1.94645 10.3705 1.7489 9.91742 1.7489H3.08273Z" fill="#1AA483"/>
</svg>
