<svg width="15" height="16" viewBox="0 0 15 16" fill="none" xmlns="http://www.w3.org/2000/svg">
    <path d="M12.0831 9.66688C11.6106 9.66726 11.1452 9.78263 10.7272 10.003C10.3092 10.2234 9.95105 10.5422 9.68374 10.9319L5.61561 9.095C5.90456 8.39727 5.90568 7.61356 5.61874 6.915L9.68124 5.06875C10.0774 5.64172 10.6658 6.05373 11.3397 6.23003C12.0137 6.40633 12.7284 6.33525 13.3544 6.02969C13.9804 5.72412 14.4762 5.20431 14.7518 4.56454C15.0273 3.92477 15.0645 3.20742 14.8565 2.54261C14.6484 1.8778 14.209 1.30956 13.6179 0.940974C13.0269 0.572386 12.3232 0.42786 11.6347 0.533612C10.9462 0.639364 10.3184 0.98839 9.86514 1.51738C9.4119 2.04637 9.16328 2.72028 9.16436 3.41688C9.16701 3.58175 9.18374 3.7461 9.21436 3.90813L4.89561 5.87063C4.48083 5.48201 3.96156 5.22302 3.4016 5.12548C2.84164 5.02793 2.26538 5.09608 1.74362 5.32154C1.22186 5.547 0.777317 5.91996 0.464611 6.3946C0.151905 6.86924 -0.0153457 7.42489 -0.0165945 7.99328C-0.0178434 8.56167 0.146964 9.11805 0.457581 9.59406C0.768198 10.0701 1.2111 10.445 1.73186 10.6727C2.25263 10.9005 2.82858 10.9712 3.38896 10.8761C3.94934 10.781 4.46975 10.5243 4.88624 10.1375L9.21624 12.0925C9.18616 12.2544 9.16965 12.4185 9.16686 12.5831C9.16674 13.1601 9.33772 13.7241 9.65819 14.2039C9.97865 14.6837 10.4342 15.0576 10.9672 15.2785C11.5002 15.4993 12.0868 15.5571 12.6526 15.4446C13.2185 15.3321 13.7383 15.0543 14.1463 14.6463C14.5543 14.2383 14.8321 13.7185 14.9446 13.1527C15.0571 12.5868 14.9993 12.0002 14.7785 11.4672C14.5576 10.9342 14.1837 10.4787 13.7039 10.1582C13.2241 9.83774 12.6601 9.66675 12.0831 9.66688ZM12.0831 1.75C12.4128 1.74988 12.7352 1.84753 13.0093 2.03062C13.2835 2.2137 13.4973 2.47399 13.6236 2.77856C13.7498 3.08313 13.7829 3.4183 13.7187 3.74168C13.6544 4.06507 13.4957 4.36214 13.2626 4.59531C13.0295 4.82849 12.7325 4.98731 12.4092 5.05168C12.0858 5.11604 11.7506 5.08307 11.446 4.95693C11.1414 4.83078 10.881 4.61714 10.6978 4.34301C10.5146 4.06888 10.4169 3.74658 10.4169 3.41688C10.4172 2.975 10.5928 2.55131 10.9052 2.2388C11.2176 1.92629 11.6412 1.7505 12.0831 1.75ZM2.91686 9.66688C2.58716 9.667 2.26483 9.56935 1.99063 9.38626C1.71643 9.20318 1.50268 8.94289 1.37643 8.63832C1.25017 8.33375 1.21707 7.99858 1.28132 7.67519C1.34556 7.35181 1.50427 7.05474 1.73736 6.82156C1.97045 6.58839 2.26746 6.42957 2.59082 6.3652C2.91418 6.30083 3.24936 6.33381 3.55398 6.45995C3.8586 6.58609 4.11896 6.79974 4.30215 7.07387C4.48534 7.348 4.58311 7.6703 4.58311 8C4.58262 8.44182 4.40693 8.86542 4.09457 9.17789C3.78221 9.49037 3.35869 9.66621 2.91686 9.66688ZM12.0831 14.25C11.7534 14.25 11.4312 14.1522 11.157 13.9691C10.8829 13.7859 10.6693 13.5256 10.5431 13.221C10.417 12.9164 10.384 12.5813 10.4483 12.2579C10.5126 11.9346 10.6713 11.6376 10.9045 11.4045C11.1376 11.1714 11.4346 11.0126 11.7579 10.9483C12.0813 10.884 12.4164 10.917 12.721 11.0431C13.0256 11.1693 13.2859 11.3829 13.4691 11.6571C13.6522 11.9312 13.75 12.2535 13.75 12.5831C13.7497 13.0251 13.5739 13.4489 13.2614 13.7614C12.9489 14.0739 12.5251 14.2497 12.0831 14.25Z" fill="#1AA483"/>
</svg>
