<svg width="25" height="24" viewBox="0 0 25 24" fill="none" xmlns="http://www.w3.org/2000/svg">
    <path d="M12.4551 6.75C12.2562 6.75 12.0654 6.67098 11.9247 6.53033C11.7841 6.38968 11.7051 6.19891 11.7051 6C11.7051 5.80109 11.7841 5.61032 11.9247 5.46967C12.0654 5.32902 12.2562 5.25 12.4551 5.25C12.654 5.25 12.8448 5.32902 12.9854 5.46967C13.1261 5.61032 13.2051 5.80109 13.2051 6C13.2051 6.19891 13.1261 6.38968 12.9854 6.53033C12.8448 6.67098 12.654 6.75 12.4551 6.75ZM12.4551 12.75C12.2562 12.75 12.0654 12.671 11.9247 12.5303C11.7841 12.3897 11.7051 12.1989 11.7051 12C11.7051 11.8011 11.7841 11.6103 11.9247 11.4697C12.0654 11.329 12.2562 11.25 12.4551 11.25C12.654 11.25 12.8448 11.329 12.9854 11.4697C13.1261 11.6103 13.2051 11.8011 13.2051 12C13.2051 12.1989 13.1261 12.3897 12.9854 12.5303C12.8448 12.671 12.654 12.75 12.4551 12.75ZM12.4551 18.75C12.2562 18.75 12.0654 18.671 11.9247 18.5303C11.7841 18.3897 11.7051 18.1989 11.7051 18C11.7051 17.8011 11.7841 17.6103 11.9247 17.4697C12.0654 17.329 12.2562 17.25 12.4551 17.25C12.654 17.25 12.8448 17.329 12.9854 17.4697C13.1261 17.6103 13.2051 17.8011 13.2051 18C13.2051 18.1989 13.1261 18.3897 12.9854 18.5303C12.8448 18.671 12.654 18.75 12.4551 18.75Z" stroke="#353535" stroke-opacity="0.3" stroke-width="1.5" stroke-linecap="round" stroke-linejoin="round"/>
</svg>
